<svg xmlns="http://www.w3.org/2000/svg" width="32" height="32" style="display:none"><path d="M4.213 0h-.005A4.208 4.208 0 0 0 0 4.202v23.587A4.215 4.215 0 0 0 4.213 32h23.573a4.216 4.216 0 0 0 4.213-4.213V4.214A4.216 4.216 0 0 0 27.786.001zm10.494 4.659H17.947c.766 0 1.387.621 1.387 1.387v1.103a.187.187 0 0 1-.234.181h.001a10.06 10.06 0 0 0-2.724-.368h-.013c-.999 0-1.964.145-2.875.414l.071-.018c-.127.028-.243-.06-.243-.187V6.046a1.39 1.39 0 0 1 1.389-1.387zm-5.8 2.96h.016c.385 0 .733.156.984.408l.552.555c.077.087.068.223-.029.28a10.14 10.14 0 0 0-1.254 1.067l-.001.001c-.374.377-.721.782-1.036 1.212l-.021.03c-.077.087-.204.107-.292.021l-.544-.545a1.38 1.38 0 0 1 0-1.962l.661-.659a1.39 1.39 0 0 1 .963-.408h.001zm7.462.466h.017a9.032 9.032 0 0 1 9.032 9.032v.006a9.045 9.045 0 0 1-9.045 9.044h-.004c-4.997 0-9.052-4.037-9.052-9.036a9.048 9.048 0 0 1 9.048-9.045h.004zm0 2.678a6.377 6.377 0 0 0-6.377 6.367 6.377 6.377 0 0 0 6.377 6.367h.009a6.369 6.369 0 0 0 6.369-6.367 6.376 6.376 0 0 0-6.376-6.368h-.003zm.194 1.117a5.252 5.252 0 0 1 4.361 2.625l.014.025c.048.097.02.213-.076.261l-4.221 2.184c-.124.069-.273-.031-.273-.167v-4.743h.003c0-.107.096-.185.193-.187z"/></svg>