<svg xmlns="http://www.w3.org/2000/svg" width="32" height="32" style="display:none"><path d="M27.02 14.786C24.965 9.054 20.61 3.906 16 0 11.39 3.907 7.035 9.054 4.98 14.786c-1.271 3.545-1.396 7.393.393 10.794C7.431 29.491 11.58 32 15.999 32s8.569-2.509 10.626-6.42c1.79-3.401 1.664-7.249.393-10.794zm-3.934 8.931C21.717 26.319 18.936 28 16 28a8.043 8.043 0 0 1-4.753-1.583c.414.054.832.083 1.254.083 3.67 0 7.146-2.1 8.856-5.351 1.402-2.665 1.281-5.433.746-7.636.455.88.841 1.756 1.151 2.623.706 1.971 1.251 4.886-.168 7.581z"/></svg>