<svg xmlns="http://www.w3.org/2000/svg" width="32" height="32" style="display:none"><path d="M2 0h12v2H2zm16 0h12v2H18zm11.75 10H28V2h-8v8h-8V2H4v8H2.25A2.256 2.256 0 0 0 0 12.25v17.5A2.256 2.256 0 0 0 2.25 32h9.5A2.256 2.256 0 0 0 14 29.75V18h4v11.75A2.256 2.256 0 0 0 20.25 32h9.5A2.256 2.256 0 0 0 32 29.75v-17.5A2.256 2.256 0 0 0 29.75 10zM10.875 30h-7.75C2.506 30 2 29.55 2 29s.506-1 1.125-1h7.75c.619 0 1.125.45 1.125 1s-.506 1-1.125 1zM17 16h-2c-.55 0-1-.45-1-1s.45-1 1-1h2c.55 0 1 .45 1 1s-.45 1-1 1zm11.875 14h-7.75C20.506 30 20 29.55 20 29s.506-1 1.125-1h7.75c.619 0 1.125.45 1.125 1s-.506 1-1.125 1z"/></svg>