<?xml version="1.0" encoding="UTF-8" standalone="no"?>
<!-- Created with Inkscape (http://www.inkscape.org/) -->

<svg
   xmlns:dc="http://purl.org/dc/elements/1.1/"
   xmlns:cc="http://creativecommons.org/ns#"
   xmlns:rdf="http://www.w3.org/1999/02/22-rdf-syntax-ns#"
   xmlns:svg="http://www.w3.org/2000/svg"
   xmlns="http://www.w3.org/2000/svg"
   xmlns:sodipodi="http://sodipodi.sourceforge.net/DTD/sodipodi-0.dtd"
   xmlns:inkscape="http://www.inkscape.org/namespaces/inkscape"
   width="250mm"
   height="120mm"
   viewBox="0 0 250 120"
   version="1.1"
   id="svg8"
   sodipodi:docname="looking13.svg"
   inkscape:version="0.92.3 (2405546, 2018-03-11)">
  <defs
     id="defs2" />
  <sodipodi:namedview
     id="base"
     pagecolor="#ffffff"
     bordercolor="#666666"
     borderopacity="1.0"
     inkscape:pageopacity="0.0"
     inkscape:pageshadow="2"
     inkscape:zoom="1.1113067"
     inkscape:cx="452.91735"
     inkscape:cy="255.90105"
     inkscape:document-units="mm"
     inkscape:current-layer="layer1"
     showgrid="false"
     inkscape:snap-bbox="false"
     inkscape:bbox-nodes="true"
     inkscape:snap-object-midpoints="true"
     inkscape:snap-global="false"
     inkscape:window-width="1600"
     inkscape:window-height="867"
     inkscape:window-x="0"
     inkscape:window-y="0"
     inkscape:window-maximized="1" />
  <metadata
     id="metadata5">
    <rdf:RDF>
      <cc:Work
         rdf:about="">
        <dc:format>image/svg+xml</dc:format>
        <dc:type
           rdf:resource="http://purl.org/dc/dcmitype/StillImage" />
        <dc:title></dc:title>
      </cc:Work>
    </rdf:RDF>
  </metadata>
  <g
     inkscape:label="Layer 1"
     inkscape:groupmode="layer"
     id="layer1"
     transform="translate(0,-177)">
    <ellipse
       ry="13.418155"
       rx="13.985119"
       cy="255.68629"
       cx="168.72874"
       id="ellipse4559"
       style="opacity:1;fill:#ffffff;fill-opacity:1;stroke:#000000;stroke-width:2;stroke-miterlimit:4;stroke-dasharray:none;stroke-opacity:1" />
    <ellipse
       style="opacity:1;fill:#ffffff;fill-opacity:1;stroke:#000000;stroke-width:2;stroke-miterlimit:4;stroke-dasharray:none;stroke-opacity:1"
       id="path4550"
       cx="79.752975"
       cy="255.68629"
       rx="13.985119"
       ry="13.418155" />
    <ellipse
       style="opacity:1;fill:#ffffff;fill-opacity:1;stroke:#000000;stroke-width:1;stroke-miterlimit:4;stroke-dasharray:none;stroke-opacity:1"
       id="path4550-0"
       cx="78.888794"
       cy="256.17929"
       rx="9.3190212"
       ry="8.9412231" />
    <ellipse
       style="opacity:1;fill:#ffffff;fill-opacity:1;stroke:#000000;stroke-width:1;stroke-miterlimit:4;stroke-dasharray:none;stroke-opacity:1"
       id="path4550-0-5"
       cx="168.88388"
       cy="256.13037"
       rx="9.3190212"
       ry="8.9412231" />
    <path
       style="opacity:1;fill:#ffffff;fill-opacity:1;stroke:#000000;stroke-width:2;stroke-miterlimit:4;stroke-dasharray:none;stroke-opacity:1"
       d="m 164.20012,284.98092 c 7.12857,0 5.09913,-18.2061 5.11804,-25.43802 -5e-5,-27.08583 -20.19372,-49.0432 -45.10383,-49.04315 -24.910094,-4e-5 -45.103746,21.95732 -45.103798,49.04315 0.01639,7.23126 -2.585056,26.00499 4.543044,26.00499"
       id="path4554"
       inkscape:connector-curvature="0"
       sodipodi:nodetypes="ccccc" />
    <ellipse
       style="fill:#ffffff;stroke:#000000;stroke-width:1.5004729;stroke-miterlimit:4;stroke-dasharray:none;stroke-opacity:1"
       id="ellipse4591"
       cx="-125.96815"
       cy="-240.9622"
       rx="16.593094"
       ry="19.067802"
       transform="matrix(-0.99370522,-0.11202652,0.07668232,-0.99705558,0,0)" />
    <ellipse
       transform="matrix(0.985697,-0.16852724,-0.1334317,-0.99105801,0,0)"
       ry="19.067802"
       rx="16.593094"
       cy="-274.99338"
       cx="105.57049"
       id="ellipse4534"
       style="fill:#ffffff;stroke:#000000;stroke-width:1.5004729;stroke-miterlimit:4;stroke-dasharray:none;stroke-opacity:1" />
    <path
       style="fill:none;stroke:#000000;stroke-width:2;stroke-linecap:butt;stroke-linejoin:miter;stroke-miterlimit:4;stroke-dasharray:none;stroke-opacity:1"
       d="M 85.890675,241.92058 C 66.962889,229.01129 66.962889,229.01129 66.962889,229.01129"
       id="path4593"
       inkscape:connector-curvature="0" />
    <path
       style="fill:none;stroke:#000000;stroke-width:2;stroke-linecap:butt;stroke-linejoin:miter;stroke-miterlimit:4;stroke-dasharray:none;stroke-opacity:1"
       d="M 99.483313,230.93022 C 73.402973,208.25165 73.402973,208.25165 73.402973,208.25165"
       id="path4595"
       inkscape:connector-curvature="0" />
    <path
       style="fill:none;stroke:#000000;stroke-width:1;stroke-linecap:butt;stroke-linejoin:miter;stroke-miterlimit:4;stroke-dasharray:none;stroke-opacity:1"
       d="m 118.00414,216.9451 c -6.04762,-22.30059 -6.04762,-22.30059 -6.04762,-22.30059"
       id="path4599"
       inkscape:connector-curvature="0" />
    <path
       style="fill:none;stroke:#000000;stroke-width:1.5;stroke-linecap:butt;stroke-linejoin:miter;stroke-miterlimit:4;stroke-dasharray:none;stroke-opacity:1"
       d="m 139.35979,220.34689 c 9.07143,-29.86012 9.07143,-29.86012 9.07143,-29.86012"
       id="path4603"
       inkscape:connector-curvature="0" />
    <path
       style="fill:none;stroke:#000000;stroke-width:1;stroke-linecap:butt;stroke-linejoin:miter;stroke-miterlimit:4;stroke-dasharray:none;stroke-opacity:1"
       d="m 150.51009,227.90641 c 15.11905,-18.52083 15.11905,-18.52083 15.11905,-18.52083"
       id="path4605"
       inkscape:connector-curvature="0" />
    <path
       style="fill:none;stroke:#000000;stroke-width:2;stroke-linecap:butt;stroke-linejoin:miter;stroke-miterlimit:4;stroke-dasharray:none;stroke-opacity:1"
       d="m 161.09343,236.59986 c 22.30059,-13.98511 22.30059,-13.98511 22.30059,-13.98511"
       id="path4607"
       inkscape:connector-curvature="0" />
    <path
       style="fill:none;stroke:#000000;stroke-width:2;stroke-linecap:butt;stroke-linejoin:miter;stroke-miterlimit:4;stroke-dasharray:none;stroke-opacity:1"
       d="m 145.49927,221.4711 c 9.45467,-21.71421 9.45467,-21.71421 9.45467,-21.71421"
       id="path4609"
       inkscape:connector-curvature="0" />
    <path
       style="fill:none;stroke:#000000;stroke-width:0.26458332px;stroke-linecap:butt;stroke-linejoin:miter;stroke-opacity:1"
       d="m 108.10119,147.6994 v 0 0"
       id="path4611"
       inkscape:connector-curvature="0" />
    <path
       style="fill:none;stroke:#000000;stroke-width:1;stroke-linecap:butt;stroke-linejoin:miter;stroke-miterlimit:4;stroke-dasharray:none;stroke-opacity:1"
       d="M 99.861283,225.63856 C 85.876187,207.4957 85.876187,207.4957 85.876187,207.4957"
       id="path4615"
       inkscape:connector-curvature="0" />
    <path
       style="fill:none;stroke:#000000;stroke-width:1.5;stroke-linecap:butt;stroke-linejoin:miter;stroke-miterlimit:4;stroke-dasharray:none;stroke-opacity:1"
       d="M 111.20057,217.70106 C 100.99521,198.42427 100.99521,198.42427 100.99521,198.42427"
       id="path4619"
       inkscape:connector-curvature="0" />
    <path
       style="fill:none;stroke:#000000;stroke-width:1.21015918;stroke-linecap:butt;stroke-linejoin:miter;stroke-miterlimit:4;stroke-dasharray:none;stroke-opacity:1"
       d="m 127.23683,216.42161 c 1.41615,-17.28486 1.41615,-17.28486 1.41615,-17.28486"
       id="path4621"
       inkscape:connector-curvature="0" />
    <path
       style="fill:none;stroke:#000000;stroke-width:2;stroke-linecap:butt;stroke-linejoin:miter;stroke-miterlimit:4;stroke-dasharray:none;stroke-opacity:1"
       d="m 157.31367,232.8201 c 8.31547,-12.47321 8.31547,-12.47321 8.31547,-12.47321"
       id="path4627"
       inkscape:connector-curvature="0" />
    <path
       style="fill:none;stroke:#000000;stroke-width:2;stroke-linecap:butt;stroke-linejoin:miter;stroke-miterlimit:4;stroke-dasharray:none;stroke-opacity:1"
       d="m 120.55131,215.2252 c -2.82647,-32.08996 -2.82647,-32.08996 -2.82647,-32.08996"
       id="path4629"
       inkscape:connector-curvature="0" />
    <path
       style="fill:none;stroke:#000000;stroke-width:1.35422122;stroke-linecap:butt;stroke-linejoin:miter;stroke-miterlimit:4;stroke-dasharray:none;stroke-opacity:1"
       d="m 131.63988,216.95424 c 4.47852,-31.20131 4.47852,-31.20131 4.47852,-31.20131"
       id="path4631"
       inkscape:connector-curvature="0" />
    <path
       style="fill:none;stroke:#000000;stroke-width:1;stroke-linecap:butt;stroke-linejoin:miter;stroke-miterlimit:4;stroke-dasharray:none;stroke-opacity:1"
       d="m 87.010115,235.08796 c -8.693452,-4.15774 -8.693452,-4.15774 -8.693452,-4.15774"
       id="path4635"
       inkscape:connector-curvature="0" />
    <path
       style="fill:none;stroke:#000000;stroke-width:1.39999998;stroke-linecap:butt;stroke-linejoin:miter;stroke-miterlimit:4;stroke-dasharray:none;stroke-opacity:1"
       d="M 93.057736,232.06415 C 72.647021,217.32308 72.647021,217.32308 72.647021,217.32308"
       id="path4637"
       inkscape:connector-curvature="0" />
    <ellipse
       ry="10.961308"
       rx="7.5595236"
       cy="283.16916"
       cx="189.10146"
       id="ellipse4567"
       style="opacity:1;fill:#ffffff;fill-opacity:1;stroke:#000000;stroke-width:2;stroke-miterlimit:4;stroke-dasharray:none;stroke-opacity:1" />
    <ellipse
       style="opacity:1;fill:#ffffff;fill-opacity:1;stroke:#000000;stroke-width:2;stroke-miterlimit:4;stroke-dasharray:none;stroke-opacity:1"
       id="ellipse4569"
       cx="205.08986"
       cy="283.16916"
       rx="7.5595236"
       ry="10.961308" />
    <ellipse
       ry="10.961308"
       rx="7.5595236"
       cy="283.16916"
       cx="173.11304"
       id="ellipse4571"
       style="opacity:1;fill:#ffffff;fill-opacity:1;stroke:#000000;stroke-width:2;stroke-miterlimit:4;stroke-dasharray:none;stroke-opacity:1" />
    <ellipse
       style="opacity:1;fill:#ffffff;fill-opacity:1;stroke:#000000;stroke-width:2;stroke-miterlimit:4;stroke-dasharray:none;stroke-opacity:1"
       id="path4561"
       cx="59.115471"
       cy="283.35815"
       rx="7.5595236"
       ry="10.961308" />
    <ellipse
       ry="10.961308"
       rx="7.5595236"
       cy="283.35815"
       cx="75.103859"
       id="ellipse4563"
       style="opacity:1;fill:#ffffff;fill-opacity:1;stroke:#000000;stroke-width:2;stroke-miterlimit:4;stroke-dasharray:none;stroke-opacity:1" />
    <ellipse
       style="opacity:1;fill:#ffffff;fill-opacity:1;stroke:#000000;stroke-width:2;stroke-miterlimit:4;stroke-dasharray:none;stroke-opacity:1"
       id="ellipse4565"
       cx="43.127075"
       cy="283.35815"
       rx="7.5595236"
       ry="10.961308" />
    <path
       style="fill:#000000;fill-opacity:1;stroke:none;stroke-width:2.29535866;stroke-miterlimit:4;stroke-dasharray:none;stroke-opacity:1"
       d="m 106.94824,260.41249 a 9.3549174,8.8658901 0 0 0 -9.354725,8.86567 9.3549174,8.8658901 0 0 0 0.0108,0.29542 13.918858,13.298701 76.642127 0 0 9.009495,4.42307 13.918858,13.298701 76.642127 0 0 9.58226,-3.45411 9.3549174,8.8658901 0 0 0 0.10731,-1.26438 9.3549174,8.8658901 0 0 0 -9.35516,-8.86567 z"
       id="path5292"
       inkscape:connector-curvature="0" />
    <path
       style="fill:none;stroke:#000000;stroke-width:2;stroke-linecap:butt;stroke-linejoin:miter;stroke-miterlimit:4;stroke-dasharray:none;stroke-opacity:1"
       d="M 106.27508,223.5454 C 90.612695,191.06801 90.612695,191.06801 90.612695,191.06801"
       id="path4619-5"
       inkscape:connector-curvature="0" />
    <path
       style="fill:#000000;fill-opacity:1;stroke:none;stroke-width:2.29535866;stroke-miterlimit:4;stroke-dasharray:none;stroke-opacity:1"
       d="m 140.30479,259.99482 a 9.3549176,8.8658901 0 0 0 -9.35477,8.86567 9.3549176,8.8658901 0 0 0 0.0108,0.29542 13.918858,13.298701 76.642127 0 0 9.00954,4.42307 13.918858,13.298701 76.642127 0 0 9.58226,-3.45411 9.3549176,8.8658901 0 0 0 0.10731,-1.26438 9.3549176,8.8658901 0 0 0 -9.35516,-8.86567 z"
       id="path5292-0"
       inkscape:connector-curvature="0" />
    <ellipse
       style="fill:#ffffff;fill-opacity:1;stroke:#000000;stroke-width:1.5;stroke-miterlimit:4;stroke-dasharray:none;stroke-opacity:1"
       id="path4536"
       cx="123.27325"
       cy="271.06461"
       rx="8.1936855"
       ry="7.3822966" />
  </g>
</svg>
