<!-- Generated by IcoMoon.io -->
<svg version="1.1" xmlns="http://www.w3.org/2000/svg" width="32" height="32" viewBox="0 0 32 32">
<title>algolia</title>
<path fill="#5468ff" d="M4.213 0c-0.002 0-0.003 0-0.005 0-2.322 0-4.205 1.881-4.208 4.202v23.587c0.002 2.325 1.888 4.21 4.213 4.211h23.573c2.329 0 4.213-1.893 4.213-4.213v-23.573c0-2.329-1.893-4.213-4.213-4.213zM14.707 4.659h3.239c0 0 0.001 0 0.001 0 0.766 0 1.387 0.621 1.387 1.387 0 0 0 0.001 0 0.001v-0 1.096c0 0.002 0 0.004 0 0.006 0 0.103-0.084 0.187-0.187 0.187-0.016 0-0.032-0.002-0.047-0.006l0.001 0c-0.817-0.233-1.755-0.368-2.724-0.368h-0c-0.004 0-0.009 0-0.013 0-0.999 0-1.964 0.145-2.875 0.414l0.071-0.018c-0.127 0.028-0.243-0.060-0.243-0.187v-1.124c0-0 0-0.001 0-0.001 0-0.765 0.622-1.385 1.389-1.387h0zM8.907 7.619c0.005-0 0.010-0 0.016-0 0.385 0 0.733 0.156 0.984 0.408l0.552 0.555c0.077 0.087 0.068 0.223-0.029 0.28-0.465 0.336-0.875 0.687-1.254 1.067l-0.001 0.001c-0.374 0.377-0.721 0.782-1.036 1.212l-0.021 0.030c-0.077 0.087-0.204 0.107-0.292 0.021l-0.544-0.545c-0.252-0.251-0.408-0.598-0.408-0.981s0.156-0.73 0.408-0.981l0.661-0.659c0.247-0.247 0.587-0.402 0.963-0.408h0.001zM16.369 8.085c0.005 0 0.011-0 0.017-0 4.988 0 9.032 4.044 9.032 9.032 0 0.002 0 0.004 0 0.006v-0c-0.001 4.995-4.050 9.044-9.045 9.044-0.001 0-0.003 0-0.004 0h0c-4.997 0-9.052-4.037-9.052-9.036 0.002-4.996 4.052-9.045 9.048-9.045 0.001 0 0.003 0 0.004 0h-0zM16.369 10.763c0 0 0 0 0 0-3.519 0-6.372 2.85-6.377 6.367v0c0.006 3.518 2.859 6.367 6.377 6.367v0c0.003 0 0.006 0 0.009 0 3.517 0 6.368-2.85 6.369-6.367v-0c-0.005-3.518-2.857-6.368-6.376-6.368-0.001 0-0.002 0-0.003 0h0zM16.563 11.88c1.873 0.071 3.488 1.109 4.361 2.625l0.014 0.025c0.048 0.097 0.020 0.213-0.076 0.261l-4.221 2.184c-0.124 0.069-0.273-0.031-0.273-0.167v-4.743h0.003c0-0.107 0.096-0.185 0.193-0.187z"></path>
</svg>
