<svg xmlns="http://www.w3.org/2000/svg" width="250mm" height="120mm" viewBox="0 0 250 120" version="1.1" id="svg8"><g id="layer1" transform="translate(0 -177)" stroke-opacity="1"><ellipse ry="13.418" rx="13.985" cy="255.686" cx="168.729" id="ellipse4559" opacity="1" fill="#fff" fill-opacity="1" stroke="#000" stroke-width="2" stroke-miterlimit="4" stroke-dasharray="none"/><ellipse id="path4550" cx="79.753" cy="255.686" rx="13.985" ry="13.418" opacity="1" fill="#fff" fill-opacity="1" stroke="#000" stroke-width="2" stroke-miterlimit="4" stroke-dasharray="none"/><ellipse id="path4550-0" cx="78.889" cy="256.179" rx="9.319" ry="8.941" opacity="1" fill="#fff" fill-opacity="1" stroke="#000" stroke-width="1" stroke-miterlimit="4" stroke-dasharray="none"/><ellipse id="path4550-0-5" cx="168.884" cy="256.13" rx="9.319" ry="8.941" opacity="1" fill="#fff" fill-opacity="1" stroke="#000" stroke-width="1" stroke-miterlimit="4" stroke-dasharray="none"/><path d="M164.2 284.98c7.129 0 5.1-18.205 5.118-25.437 0-27.086-20.194-49.043-45.104-49.043s-45.103 21.957-45.103 49.043c.016 7.231-2.586 26.005 4.543 26.005" id="path4554" opacity="1" fill="#fff" fill-opacity="1" stroke="#000" stroke-width="2" stroke-miterlimit="4" stroke-dasharray="none"/><ellipse id="ellipse4591" cx="-125.968" cy="-240.962" rx="16.593" ry="19.068" transform="matrix(-.9937 -.11203 .07668 -.99706 0 0)" fill="#fff" stroke="#000" stroke-width="1.5" stroke-miterlimit="4" stroke-dasharray="none"/><ellipse transform="matrix(.9857 -.16853 -.13343 -.99106 0 0)" ry="19.068" rx="16.593" cy="-274.993" cx="105.57" id="ellipse4534" fill="#fff" stroke="#000" stroke-width="1.5" stroke-miterlimit="4" stroke-dasharray="none"/><path d="M85.89 241.92l-18.927-12.909" id="path4593" fill="none" stroke="#000" stroke-width="2" stroke-linecap="butt" stroke-linejoin="miter" stroke-miterlimit="4" stroke-dasharray="none"/><path d="M99.483 230.93l-26.08-22.678" id="path4595" fill="none" stroke="#000" stroke-width="2" stroke-linecap="butt" stroke-linejoin="miter" stroke-miterlimit="4" stroke-dasharray="none"/><path d="M118.004 216.945l-6.047-22.3" id="path4599" fill="none" stroke="#000" stroke-width="1" stroke-linecap="butt" stroke-linejoin="miter" stroke-miterlimit="4" stroke-dasharray="none"/><path d="M139.36 220.347l9.071-29.86" id="path4603" fill="none" stroke="#000" stroke-width="1.5" stroke-linecap="butt" stroke-linejoin="miter" stroke-miterlimit="4" stroke-dasharray="none"/><path d="M150.51 227.906l15.12-18.52" id="path4605" fill="none" stroke="#000" stroke-width="1" stroke-linecap="butt" stroke-linejoin="miter" stroke-miterlimit="4" stroke-dasharray="none"/><path d="M161.093 236.6l22.301-13.985" id="path4607" fill="none" stroke="#000" stroke-width="2" stroke-linecap="butt" stroke-linejoin="miter" stroke-miterlimit="4" stroke-dasharray="none"/><path d="M145.5 221.471l9.454-21.714" id="path4609" fill="none" stroke="#000" stroke-width="2" stroke-linecap="butt" stroke-linejoin="miter" stroke-miterlimit="4" stroke-dasharray="none"/><path d="M108.101 147.7v0" id="path4611" fill="none" stroke="#000" stroke-width=".265" stroke-linecap="butt" stroke-linejoin="miter"/><path d="M99.861 225.639l-13.985-18.143" id="path4615" fill="none" stroke="#000" stroke-width="1" stroke-linecap="butt" stroke-linejoin="miter" stroke-miterlimit="4" stroke-dasharray="none"/><path d="M111.2 217.701l-10.205-19.277" id="path4619" fill="none" stroke="#000" stroke-width="1.5" stroke-linecap="butt" stroke-linejoin="miter" stroke-miterlimit="4" stroke-dasharray="none"/><path d="M127.237 216.422l1.416-17.285" id="path4621" fill="none" stroke="#000" stroke-width="1.21" stroke-linecap="butt" stroke-linejoin="miter" stroke-miterlimit="4" stroke-dasharray="none"/><path d="M157.314 232.82l8.315-12.473" id="path4627" fill="none" stroke="#000" stroke-width="2" stroke-linecap="butt" stroke-linejoin="miter" stroke-miterlimit="4" stroke-dasharray="none"/><path d="M120.551 215.225l-2.826-32.09" id="path4629" fill="none" stroke="#000" stroke-width="2" stroke-linecap="butt" stroke-linejoin="miter" stroke-miterlimit="4" stroke-dasharray="none"/><path d="M131.64 216.954l4.478-31.201" id="path4631" fill="none" stroke="#000" stroke-width="1.354" stroke-linecap="butt" stroke-linejoin="miter" stroke-miterlimit="4" stroke-dasharray="none"/><path d="M87.01 235.088l-8.693-4.158" id="path4635" fill="none" stroke="#000" stroke-width="1" stroke-linecap="butt" stroke-linejoin="miter" stroke-miterlimit="4" stroke-dasharray="none"/><path d="M93.058 232.064l-20.411-14.74" id="path4637" fill="none" stroke="#000" stroke-width="1.4" stroke-linecap="butt" stroke-linejoin="miter" stroke-miterlimit="4" stroke-dasharray="none"/><ellipse ry="10.961" rx="7.56" cy="283.169" cx="189.101" id="ellipse4567" opacity="1" fill="#fff" fill-opacity="1" stroke="#000" stroke-width="2" stroke-miterlimit="4" stroke-dasharray="none"/><ellipse id="ellipse4569" cx="205.09" cy="283.169" rx="7.56" ry="10.961" opacity="1" fill="#fff" fill-opacity="1" stroke="#000" stroke-width="2" stroke-miterlimit="4" stroke-dasharray="none"/><ellipse ry="10.961" rx="7.56" cy="283.169" cx="173.113" id="ellipse4571" opacity="1" fill="#fff" fill-opacity="1" stroke="#000" stroke-width="2" stroke-miterlimit="4" stroke-dasharray="none"/><ellipse id="path4561" cx="59.115" cy="283.358" rx="7.56" ry="10.961" opacity="1" fill="#fff" fill-opacity="1" stroke="#000" stroke-width="2" stroke-miterlimit="4" stroke-dasharray="none"/><ellipse ry="10.961" rx="7.56" cy="283.358" cx="75.104" id="ellipse4563" opacity="1" fill="#fff" fill-opacity="1" stroke="#000" stroke-width="2" stroke-miterlimit="4" stroke-dasharray="none"/><ellipse id="ellipse4565" cx="43.127" cy="283.358" rx="7.56" ry="10.961" opacity="1" fill="#fff" fill-opacity="1" stroke="#000" stroke-width="2" stroke-miterlimit="4" stroke-dasharray="none"/><path d="M106.948 260.412a9.355 8.866 0 00-9.354 8.866 9.355 8.866 0 00.01.296 13.919 13.299 76.642 009.01 4.423 13.919 13.299 76.642 009.582-3.454 9.355 8.866 0 00.107-1.265 9.355 8.866 0 00-9.355-8.866z" id="path5292" fill="#000" fill-opacity="1" stroke="none" stroke-width="2.295" stroke-miterlimit="4" stroke-dasharray="none"/><path d="M106.275 223.545l-15.662-32.477" id="path4619-5" fill="none" stroke="#000" stroke-width="2" stroke-linecap="butt" stroke-linejoin="miter" stroke-miterlimit="4" stroke-dasharray="none"/><path d="M140.305 259.995a9.355 8.866 0 00-9.355 8.865 9.355 8.866 0 00.01.296 13.919 13.299 76.642 009.01 4.423 13.919 13.299 76.642 009.583-3.454 9.355 8.866 0 00.107-1.265 9.355 8.866 0 00-9.355-8.865z" id="path5292-0" fill="#000" fill-opacity="1" stroke="none" stroke-width="2.295" stroke-miterlimit="4" stroke-dasharray="none"/><ellipse id="path4536" cx="123.273" cy="271.065" rx="8.194" ry="7.382" fill="#fff" fill-opacity="1" stroke="#000" stroke-width="1.5" stroke-miterlimit="4" stroke-dasharray="none"/></g></svg>