<svg xmlns="http://www.w3.org/2000/svg" width="250mm" height="120mm" viewBox="0 0 250 120"><g transform="translate(0 -177)"><ellipse ry="13.418" rx="13.985" cy="255.686" cx="168.729" fill="#fff" stroke="#000" stroke-width="2"/><ellipse cx="79.753" cy="255.686" rx="13.985" ry="13.418" fill="#fff" stroke="#000" stroke-width="2"/><ellipse cx="78.889" cy="256.179" rx="9.319" ry="8.941" fill="#fff" stroke="#000"/><ellipse cx="168.884" cy="256.13" rx="9.319" ry="8.941" fill="#fff" stroke="#000"/><path d="M164.2 284.98c7.129 0 5.1-18.205 5.118-25.437 0-27.086-20.194-49.043-45.104-49.043s-45.103 21.957-45.103 49.043c.016 7.231-2.586 26.005 4.543 26.005" fill="#fff" stroke="#000" stroke-width="2"/><ellipse cx="-125.968" cy="-240.962" rx="16.593" ry="19.068" transform="matrix(-.9937 -.11203 .07668 -.99706 0 0)" fill="#fff" stroke="#000" stroke-width="1.5"/><ellipse transform="matrix(.9857 -.16853 -.13343 -.99106 0 0)" ry="19.068" rx="16.593" cy="-274.993" cx="105.57" fill="#fff" stroke="#000" stroke-width="1.5"/><path d="M85.89 241.92l-18.927-12.909m32.52 1.919l-26.08-22.678" fill="none" stroke="#000" stroke-width="2"/><path d="M118.004 216.945l-6.047-22.3" fill="none" stroke="#000"/><path d="M139.36 220.347l9.071-29.86" fill="none" stroke="#000" stroke-width="1.5"/><path d="M150.51 227.906l15.12-18.52" fill="none" stroke="#000"/><path d="M161.093 236.6l22.301-13.985m-37.894-1.144l9.454-21.714" fill="none" stroke="#000" stroke-width="2"/><path d="M99.861 225.639l-13.985-18.143" fill="none" stroke="#000"/><path d="M111.2 217.701l-10.205-19.277" fill="none" stroke="#000" stroke-width="1.5"/><path d="M127.237 216.422l1.416-17.285" fill="none" stroke="#000" stroke-width="1.21"/><path d="M157.314 232.82l8.315-12.473m-45.078-5.122l-2.826-32.09" fill="none" stroke="#000" stroke-width="2"/><path d="M131.64 216.954l4.478-31.201" fill="none" stroke="#000" stroke-width="1.354"/><path d="M87.01 235.088l-8.693-4.158" fill="none" stroke="#000"/><path d="M93.058 232.064l-20.411-14.74" fill="none" stroke="#000" stroke-width="1.4"/><ellipse ry="10.961" rx="7.56" cy="283.169" cx="189.101" fill="#fff" stroke="#000" stroke-width="2"/><ellipse cx="205.09" cy="283.169" rx="7.56" ry="10.961" fill="#fff" stroke="#000" stroke-width="2"/><ellipse ry="10.961" rx="7.56" cy="283.169" cx="173.113" fill="#fff" stroke="#000" stroke-width="2"/><ellipse cx="59.115" cy="283.358" rx="7.56" ry="10.961" fill="#fff" stroke="#000" stroke-width="2"/><ellipse ry="10.961" rx="7.56" cy="283.358" cx="75.104" fill="#fff" stroke="#000" stroke-width="2"/><ellipse cx="43.127" cy="283.358" rx="7.56" ry="10.961" fill="#fff" stroke="#000" stroke-width="2"/><path d="M106.948 260.412a9.355 8.866 0 00-9.354 8.866 9.355 8.866 0 00.01.296 13.919 13.299 76.642 009.01 4.423 13.919 13.299 76.642 009.582-3.454 9.355 8.866 0 00.107-1.265 9.355 8.866 0 00-9.355-8.866z"/><path d="M106.275 223.545l-15.662-32.477" fill="none" stroke="#000" stroke-width="2"/><path d="M140.305 259.995a9.355 8.866 0 00-9.355 8.865 9.355 8.866 0 00.01.296 13.919 13.299 76.642 009.01 4.423 13.919 13.299 76.642 009.583-3.454 9.355 8.866 0 00.107-1.265 9.355 8.866 0 00-9.355-8.865z"/><ellipse cx="123.273" cy="271.065" rx="8.194" ry="7.382" fill="#fff" stroke="#000" stroke-width="1.5"/></g></svg>