<svg xmlns="http://www.w3.org/2000/svg" width="250mm" height="120mm" viewBox="0 0 250 120"><g transform="translate(0 -177)"><ellipse ry="13.418" rx="13.985" cy="255.686" cx="168.729" style="opacity:1;fill:#fff;fill-opacity:1;stroke:#000;stroke-width:2;stroke-miterlimit:4;stroke-dasharray:none;stroke-opacity:1"/><ellipse style="opacity:1;fill:#fff;fill-opacity:1;stroke:#000;stroke-width:2;stroke-miterlimit:4;stroke-dasharray:none;stroke-opacity:1" cx="79.753" cy="255.686" rx="13.985" ry="13.418"/><ellipse style="opacity:1;fill:#fff;fill-opacity:1;stroke:#000;stroke-width:1;stroke-miterlimit:4;stroke-dasharray:none;stroke-opacity:1" cx="78.889" cy="256.179" rx="9.319" ry="8.941"/><ellipse style="opacity:1;fill:#fff;fill-opacity:1;stroke:#000;stroke-width:1;stroke-miterlimit:4;stroke-dasharray:none;stroke-opacity:1" cx="168.884" cy="256.13" rx="9.319" ry="8.941"/><path style="opacity:1;fill:#fff;fill-opacity:1;stroke:#000;stroke-width:2;stroke-miterlimit:4;stroke-dasharray:none;stroke-opacity:1" d="M164.2 284.98c7.129 0 5.1-18.205 5.118-25.437 0-27.086-20.194-49.043-45.104-49.043s-45.103 21.957-45.103 49.043c.016 7.231-2.586 26.005 4.543 26.005"/><ellipse style="fill:#fff;stroke:#000;stroke-width:1.5004729;stroke-miterlimit:4;stroke-dasharray:none;stroke-opacity:1" cx="-125.968" cy="-240.962" rx="16.593" ry="19.068" transform="matrix(-.9937 -.11203 .07668 -.99706 0 0)"/><ellipse transform="matrix(.9857 -.16853 -.13343 -.99106 0 0)" ry="19.068" rx="16.593" cy="-274.993" cx="105.57" style="fill:#fff;stroke:#000;stroke-width:1.5004729;stroke-miterlimit:4;stroke-dasharray:none;stroke-opacity:1"/><path style="fill:none;stroke:#000;stroke-width:2;stroke-linecap:butt;stroke-linejoin:miter;stroke-miterlimit:4;stroke-dasharray:none;stroke-opacity:1" d="m85.89 241.92-18.927-12.909m32.52 1.919-26.08-22.678"/><path style="fill:none;stroke:#000;stroke-width:1;stroke-linecap:butt;stroke-linejoin:miter;stroke-miterlimit:4;stroke-dasharray:none;stroke-opacity:1" d="m118.004 216.945-6.047-22.3"/><path style="fill:none;stroke:#000;stroke-width:1.5;stroke-linecap:butt;stroke-linejoin:miter;stroke-miterlimit:4;stroke-dasharray:none;stroke-opacity:1" d="m139.36 220.347 9.071-29.86"/><path style="fill:none;stroke:#000;stroke-width:1;stroke-linecap:butt;stroke-linejoin:miter;stroke-miterlimit:4;stroke-dasharray:none;stroke-opacity:1" d="m150.51 227.906 15.12-18.52"/><path style="fill:none;stroke:#000;stroke-width:2;stroke-linecap:butt;stroke-linejoin:miter;stroke-miterlimit:4;stroke-dasharray:none;stroke-opacity:1" d="m161.093 236.6 22.301-13.985m-37.894-1.144 9.454-21.714"/><path style="fill:none;stroke:#000;stroke-width:1;stroke-linecap:butt;stroke-linejoin:miter;stroke-miterlimit:4;stroke-dasharray:none;stroke-opacity:1" d="m99.861 225.639-13.985-18.143"/><path style="fill:none;stroke:#000;stroke-width:1.5;stroke-linecap:butt;stroke-linejoin:miter;stroke-miterlimit:4;stroke-dasharray:none;stroke-opacity:1" d="m111.2 217.701-10.205-19.277"/><path style="fill:none;stroke:#000;stroke-width:1.21015918;stroke-linecap:butt;stroke-linejoin:miter;stroke-miterlimit:4;stroke-dasharray:none;stroke-opacity:1" d="m127.237 216.422 1.416-17.285"/><path style="fill:none;stroke:#000;stroke-width:2;stroke-linecap:butt;stroke-linejoin:miter;stroke-miterlimit:4;stroke-dasharray:none;stroke-opacity:1" d="m157.314 232.82 8.315-12.473m-45.078-5.122-2.826-32.09"/><path style="fill:none;stroke:#000;stroke-width:1.35422122;stroke-linecap:butt;stroke-linejoin:miter;stroke-miterlimit:4;stroke-dasharray:none;stroke-opacity:1" d="m131.64 216.954 4.478-31.201"/><path style="fill:none;stroke:#000;stroke-width:1;stroke-linecap:butt;stroke-linejoin:miter;stroke-miterlimit:4;stroke-dasharray:none;stroke-opacity:1" d="m87.01 235.088-8.693-4.158"/><path style="fill:none;stroke:#000;stroke-width:1.39999998;stroke-linecap:butt;stroke-linejoin:miter;stroke-miterlimit:4;stroke-dasharray:none;stroke-opacity:1" d="m93.058 232.064-20.411-14.74"/><ellipse ry="10.961" rx="7.56" cy="283.169" cx="189.101" style="opacity:1;fill:#fff;fill-opacity:1;stroke:#000;stroke-width:2;stroke-miterlimit:4;stroke-dasharray:none;stroke-opacity:1"/><ellipse style="opacity:1;fill:#fff;fill-opacity:1;stroke:#000;stroke-width:2;stroke-miterlimit:4;stroke-dasharray:none;stroke-opacity:1" cx="205.09" cy="283.169" rx="7.56" ry="10.961"/><ellipse ry="10.961" rx="7.56" cy="283.169" cx="173.113" style="opacity:1;fill:#fff;fill-opacity:1;stroke:#000;stroke-width:2;stroke-miterlimit:4;stroke-dasharray:none;stroke-opacity:1"/><ellipse style="opacity:1;fill:#fff;fill-opacity:1;stroke:#000;stroke-width:2;stroke-miterlimit:4;stroke-dasharray:none;stroke-opacity:1" cx="59.115" cy="283.358" rx="7.56" ry="10.961"/><ellipse ry="10.961" rx="7.56" cy="283.358" cx="75.104" style="opacity:1;fill:#fff;fill-opacity:1;stroke:#000;stroke-width:2;stroke-miterlimit:4;stroke-dasharray:none;stroke-opacity:1"/><ellipse style="opacity:1;fill:#fff;fill-opacity:1;stroke:#000;stroke-width:2;stroke-miterlimit:4;stroke-dasharray:none;stroke-opacity:1" cx="43.127" cy="283.358" rx="7.56" ry="10.961"/><path style="fill:#000;fill-opacity:1;stroke:none;stroke-width:2.29535866;stroke-miterlimit:4;stroke-dasharray:none;stroke-opacity:1" d="M106.948 260.412a9.355 8.866 0 0 0-9.354 8.866 9.355 8.866 0 0 0 .01.296 13.919 13.299 76.642 0 0 9.01 4.423 13.919 13.299 76.642 0 0 9.582-3.454 9.355 8.866 0 0 0 .107-1.265 9.355 8.866 0 0 0-9.355-8.866z"/><path style="fill:none;stroke:#000;stroke-width:2;stroke-linecap:butt;stroke-linejoin:miter;stroke-miterlimit:4;stroke-dasharray:none;stroke-opacity:1" d="m106.275 223.545-15.662-32.477"/><path style="fill:#000;fill-opacity:1;stroke:none;stroke-width:2.29535866;stroke-miterlimit:4;stroke-dasharray:none;stroke-opacity:1" d="M140.305 259.995a9.355 8.866 0 0 0-9.355 8.865 9.355 8.866 0 0 0 .01.296 13.919 13.299 76.642 0 0 9.01 4.423 13.919 13.299 76.642 0 0 9.583-3.454 9.355 8.866 0 0 0 .107-1.265 9.355 8.866 0 0 0-9.355-8.865z"/><ellipse style="fill:#fff;fill-opacity:1;stroke:#000;stroke-width:1.5;stroke-miterlimit:4;stroke-dasharray:none;stroke-opacity:1" cx="123.273" cy="271.065" rx="8.194" ry="7.382"/></g></svg>